<svg width="50" height="51" viewBox="0 0 50 51" fill="none" xmlns="http://www.w3.org/2000/svg">
<path d="M25 48.4166C12.3227 48.4166 2.08337 38.1772 2.08337 25.4999C2.08337 12.8226 12.3227 2.58328 25 2.58328C37.6773 2.58328 47.9167 12.8226 47.9167 25.4999C47.9167 38.1772 37.6773 48.4166 25 48.4166ZM25 6.38647C14.4681 6.38647 5.88656 14.968 5.88656 25.4999C5.88656 36.0319 14.4681 44.6134 25 44.6134C35.532 44.6134 44.1135 36.0319 44.1135 25.4999C44.1135 14.968 35.532 6.38647 25 6.38647Z" fill="black"/>
<path d="M23.0903 15.9513C23.0903 14.8966 23.9453 14.0416 25 14.0416C26.0548 14.0416 26.9098 14.8966 26.9098 15.9513V35.0486C26.9098 36.1033 26.0548 36.9583 25 36.9583C23.9453 36.9583 23.0903 36.1033 23.0903 35.0486V15.9513Z" fill="black"/>
<path d="M15.4514 27.4097C14.3967 27.4097 13.5417 26.5547 13.5417 25.4999C13.5417 24.4452 14.3967 23.5902 15.4514 23.5902L34.5487 23.5902C35.6034 23.5902 36.4584 24.4452 36.4584 25.4999C36.4584 26.5547 35.6034 27.4097 34.5487 27.4097L15.4514 27.4097Z" fill="black"/>
</svg>
