<svg width="40" height="40" viewBox="0 0 40 40" fill="none" xmlns="http://www.w3.org/2000/svg">
<path d="M29 0C35.076 0 40 5.40541 40 12.973C40 28.1081 25 36.7568 20 40C15 36.7568 0 28.1081 0 12.973C0 5.40541 5 0 11 0C14.72 0 18 2.16216 20 4.32432C22 2.16216 25.28 0 29 0ZM21.868 33.7384C23.5424 32.6091 25.1582 31.3813 26.708 30.0605C32.67 24.9362 36 19.3362 36 12.973C36 7.87027 32.926 4.32432 29 4.32432C26.848 4.32432 24.52 5.55676 22.828 7.38162L20 10.4389L17.172 7.38162C15.48 5.55676 13.152 4.32432 11 4.32432C7.12 4.32432 4 7.90486 4 12.973C4 19.3384 7.332 24.9362 13.29 30.0605C14.78 31.3405 16.37 32.5362 18.132 33.7362C18.73 34.1449 19.322 34.5362 20 34.973C20.678 34.5362 21.27 34.1449 21.868 33.7384Z" fill="#FF0000"/>
</svg>
