<svg width="40" height="40" viewBox="0 0 40 40" fill="none" xmlns="http://www.w3.org/2000/svg">
<path d="M29 0C35.076 0 40 5.40541 40 12.973C40 28.1081 25 36.7568 20 40C15 36.7568 0 28.1081 0 12.973C0 5.40541 5 0 11 0C14.72 0 18 2.16216 20 4.32432C22 2.16216 25.28 0 29 0ZM21 32C22.132 29.2616 24.3674 30.5453 25.9173 29.2245C31.8793 24.1001 27 16.3632 27 10C27 4.8973 32.926 8.5 29 8.5C26.848 8.5 35.692 19.1751 34 21L29.5 26L19.5 35C17.808 33.1751 13.152 30.0605 11 30.0605C7.12 30.0605 7.5 12.4319 7.5 17.5C8.89818 23.5 7.332 24.9362 13.29 30.0605C14.78 31.3405 16.8288 32.5384 18.5908 33.7384C19.1888 34.147 19 34.5 19.5 35C20.178 34.5632 20.402 32.4065 21 32Z" fill="#FF0000"/>
</svg>
