<svg width="40" height="40" viewBox="0 0 40 40" fill="none" xmlns="http://www.w3.org/2000/svg">
<path d="M20 40C8.954 40 0 31.046 0 20C0 8.954 8.954 0 20 0C31.046 0 40 8.954 40 20C40 31.046 31.046 40 20 40ZM20 36C24.2435 36 28.3131 34.3143 31.3137 31.3137C34.3143 28.3131 36 24.2435 36 20C36 15.7565 34.3143 11.6869 31.3137 8.68629C28.3131 5.68571 24.2435 4 20 4C15.7565 4 11.6869 5.68571 8.68629 8.68629C5.68571 11.6869 4 15.7565 4 20C4 24.2435 5.68571 28.3131 8.68629 31.3137C11.6869 34.3143 15.7565 36 20 36ZM13 24H24C24.2652 24 24.5196 23.8946 24.7071 23.7071C24.8946 23.5196 25 23.2652 25 23C25 22.7348 24.8946 22.4804 24.7071 22.2929C24.5196 22.1054 24.2652 22 24 22H16C14.6739 22 13.4021 21.4732 12.4645 20.5355C11.5268 19.5979 11 18.3261 11 17C11 15.6739 11.5268 14.4021 12.4645 13.4645C13.4021 12.5268 14.6739 12 16 12H18V8H22V12H27V16H16C15.7348 16 15.4804 16.1054 15.2929 16.2929C15.1054 16.4804 15 16.7348 15 17C15 17.2652 15.1054 17.5196 15.2929 17.7071C15.4804 17.8946 15.7348 18 16 18H24C25.3261 18 26.5979 18.5268 27.5355 19.4645C28.4732 20.4021 29 21.6739 29 23C29 24.3261 28.4732 25.5979 27.5355 26.5355C26.5979 27.4732 25.3261 28 24 28H22V32H18V28H13V24Z" fill="#FFD600"/>
</svg>
