<svg width="48" height="42" viewBox="0 0 48 42" fill="none" xmlns="http://www.w3.org/2000/svg">
<path d="M26.7891 7.94056C25.8734 7.84152 24.9431 7.78476 24 7.77064C19.879 7.78892 15.6071 8.79132 11.5635 10.7121C8.56116 12.197 5.63656 14.2932 3.09668 16.879C1.84928 18.199 0.25724 20.1103 0 22.1495C0.0304 23.916 1.92612 26.0963 3.09668 27.4201C5.4784 29.9043 8.32684 31.9406 11.5635 33.587C11.6735 33.6404 11.7839 33.6932 11.8945 33.7452L8.89164 38.9893L12.9718 41.4008L35.0285 2.99944L31.101 0.599121L26.7891 7.94056ZM36.1025 10.5597L33.1054 15.754C34.4842 17.5453 35.3027 19.7542 35.3027 22.1495C35.3027 28.1198 30.2418 32.9601 23.997 32.9601C23.7271 32.9601 23.4654 32.931 23.2002 32.9132L21.2168 36.3468C22.1315 36.4448 23.0564 36.5161 24 36.5284C28.1249 36.5099 32.3944 35.496 36.4336 33.587C39.4359 32.1022 42.3634 30.0059 44.9033 27.4201C46.1507 26.1001 47.7427 24.1888 48 22.1495C47.9696 20.3831 46.0738 18.2028 44.9033 16.879C42.5216 14.3948 39.6702 12.3585 36.4336 10.712C36.3243 10.659 36.2125 10.6114 36.1025 10.5597ZM23.9971 11.339C24.2709 11.339 24.5426 11.35 24.8115 11.3683L22.4883 15.3908C19.2277 16.0518 16.7812 18.826 16.7812 22.1466C16.7812 22.9808 16.9349 23.7794 17.2178 24.5196C17.2181 24.5205 17.2174 24.5218 17.2178 24.5226L14.8886 28.5568C13.5066 26.7638 12.6914 24.5476 12.6914 22.1495C12.6914 16.1793 17.7523 11.339 23.9971 11.339ZM30.7558 19.8204L25.5205 28.8908C28.7636 28.2173 31.1924 25.4558 31.1924 22.1466C31.1924 21.3277 31.029 20.5491 30.7558 19.8204Z" fill="black"/>
</svg>
