<svg width="46" height="31" viewBox="0 0 46 31" fill="none" xmlns="http://www.w3.org/2000/svg">
<path d="M45.2075 14.3961C43.7675 11.9448 35.8475 -0.355608 22.3925 0.0418916C9.94997 0.351058 2.74997 11.0836 0.792471 14.3961C0.594992 14.7318 0.491028 15.1126 0.491028 15.5002C0.491028 15.8879 0.594992 16.2687 0.792471 16.6044C2.20997 19.0115 9.79247 30.9586 23.045 30.9586H23.6075C36.05 30.6494 43.2725 19.9169 45.2075 16.6044C45.405 16.2687 45.5089 15.8879 45.5089 15.5002C45.5089 15.1126 45.405 14.7318 45.2075 14.3961V14.3961ZM23.495 26.5419C13.7975 26.7627 7.47497 18.614 5.49497 15.5002C7.74497 11.9448 13.6175 4.67939 22.6175 4.45856C32.27 4.21564 38.615 12.3865 40.6175 15.5002C38.3 19.0556 32.495 26.3211 23.495 26.5419V26.5419Z" fill="black"/>
<path d="M22.9999 7.771C21.4424 7.771 19.9199 8.2243 18.6248 9.0736C17.3298 9.92289 16.3204 11.13 15.7244 12.5423C15.1284 13.9547 14.9724 15.5087 15.2763 17.0081C15.5801 18.5074 16.3301 19.8846 17.4315 20.9655C18.5328 22.0465 19.936 22.7826 21.4636 23.0808C22.9912 23.3791 24.5746 23.226 26.0136 22.641C27.4525 22.056 28.6825 21.0653 29.5478 19.7943C30.4131 18.5232 30.8749 17.0288 30.8749 15.5002C30.8749 13.4503 30.0453 11.4843 28.5684 10.0348C27.0916 8.58532 25.0885 7.771 22.9999 7.771V7.771ZM22.9999 18.8127C22.3324 18.8127 21.6799 18.6184 21.1249 18.2544C20.5699 17.8904 20.1373 17.3731 19.8819 16.7678C19.6264 16.1625 19.5596 15.4965 19.6898 14.8539C19.82 14.2114 20.1415 13.6211 20.6135 13.1579C21.0855 12.6946 21.6868 12.3791 22.3415 12.2513C22.9962 12.1235 23.6748 12.1891 24.2915 12.4398C24.9082 12.6905 25.4353 13.1151 25.8062 13.6598C26.177 14.2046 26.3749 14.845 26.3749 15.5002C26.3749 16.3787 26.0194 17.2212 25.3864 17.8425C24.7535 18.4637 23.895 18.8127 22.9999 18.8127Z" fill="black"/>
</svg>
