<svg width="48" height="49" viewBox="0 0 48 49" fill="none" xmlns="http://www.w3.org/2000/svg">
<path d="M45.8599 48.5087H30.2675C29.1465 48.5087 28.2293 47.589 28.2293 46.465V36.7577C28.2293 34.3054 26.293 32.3639 23.8471 32.3639C21.4013 32.3639 19.465 34.3054 19.465 36.7577V46.465C19.465 47.589 18.5478 48.5087 17.4268 48.5087H2.03822C0.917198 48.5087 0 47.589 0 46.465L0 20.3064C0 18.4672 0.917197 16.7301 2.34395 15.7082L22.828 0.89185C23.5414 0.380939 24.4586 0.380939 25.172 0.89185L45.6561 15.7082C47.0828 16.7301 48 18.4672 48 20.3064V46.5672C47.8981 47.589 46.9809 48.5087 45.8599 48.5087ZM32.3057 44.5236H43.9236V20.3064C43.9236 19.7955 43.6178 19.2846 43.2102 18.9781L23.949 4.97913L4.6879 18.8759C4.28025 19.1824 3.97452 19.6933 3.97452 20.2043L3.97452 44.4214H15.5924V36.7577C15.5924 32.1595 19.3631 28.3788 23.949 28.3788C28.535 28.3788 32.3057 32.1595 32.3057 36.7577V44.5236Z" fill="black"/>
</svg>
