<svg width="48" height="48" viewBox="0 0 48 48" fill="none" xmlns="http://www.w3.org/2000/svg">
<path d="M48 45.4895L34.592 32.0815C37.814 28.2134 39.4207 23.252 39.0779 18.2295C38.735 13.2069 36.4691 8.50988 32.7513 5.11549C29.0335 1.7211 24.1502 -0.109305 19.1173 0.00505318C14.0843 0.119411 9.28923 2.16973 5.72948 5.72948C2.16973 9.28923 0.119411 14.0843 0.00505318 19.1173C-0.109305 24.1502 1.7211 29.0335 5.11549 32.7513C8.50989 36.4691 13.2069 38.735 18.2295 39.0779C23.252 39.4207 28.2134 37.814 32.0815 34.592L45.4895 48L48 45.4895ZM3.61434 19.5932C3.61434 16.4329 4.55149 13.3435 6.30726 10.7158C8.06304 8.08811 10.5586 6.04006 13.4783 4.83066C16.3981 3.62126 19.6109 3.30482 22.7105 3.92137C25.8101 4.53792 28.6572 6.05975 30.8919 8.29443C33.1266 10.5291 34.6484 13.3763 35.265 16.4759C35.8815 19.5755 35.5651 22.7883 34.3557 25.708C33.1463 28.6278 31.0983 31.1233 28.4705 32.8791C25.8428 34.6349 22.7535 35.572 19.5932 35.572C15.3568 35.5673 11.2952 33.8823 8.29963 30.8867C5.30403 27.8911 3.61904 23.8296 3.61434 19.5932Z" fill="black"/>
</svg>
