<svg width="50" height="50" viewBox="0 0 50 50" fill="none" xmlns="http://www.w3.org/2000/svg">
<path d="M25 6.25C26.5452 6.25 28.0556 6.70819 29.3404 7.56664C30.6252 8.42509 31.6265 9.64524 32.2178 11.0728C32.8091 12.5003 32.9638 14.0712 32.6624 15.5866C32.3609 17.1021 31.6169 18.4942 30.5243 19.5868C29.4317 20.6794 28.0396 21.4234 26.5241 21.7249C25.0087 22.0263 23.4378 21.8716 22.0103 21.2803C20.5827 20.689 19.3626 19.6877 18.5041 18.4029C17.6457 17.1181 17.1875 15.6077 17.1875 14.0625C17.1875 11.9905 18.0106 10.0034 19.4757 8.53823C20.9409 7.0731 22.928 6.25 25 6.25ZM25 3.125C22.8368 3.125 20.7221 3.76647 18.9235 4.9683C17.1248 6.17013 15.7229 7.87833 14.8951 9.8769C14.0672 11.8755 13.8506 14.0746 14.2727 16.1963C14.6947 18.318 15.7364 20.2668 17.266 21.7965C18.7957 23.3261 20.7445 24.3678 22.8662 24.7898C24.9879 25.2119 27.187 24.9953 29.1856 24.1674C31.1842 23.3396 32.8924 21.9377 34.0942 20.139C35.296 18.3404 35.9375 16.2257 35.9375 14.0625C35.9375 11.1617 34.7852 8.3797 32.734 6.32852C30.6828 4.27734 27.9008 3.125 25 3.125Z" fill="black"/>
<path d="M40.625 46.875H37.5V39.0625C37.5 38.0365 37.2979 37.0206 36.9053 36.0728C36.5127 35.1249 35.9372 34.2637 35.2118 33.5382C34.4863 32.8128 33.6251 32.2373 32.6772 31.8447C31.7294 31.4521 30.7135 31.25 29.6875 31.25H20.3125C18.2405 31.25 16.2534 32.0731 14.7882 33.5382C13.3231 35.0034 12.5 36.9905 12.5 39.0625V46.875H9.375V39.0625C9.375 36.1617 10.5273 33.3797 12.5785 31.3285C14.6297 29.2773 17.4117 28.125 20.3125 28.125H29.6875C32.5883 28.125 35.3703 29.2773 37.4215 31.3285C39.4727 33.3797 40.625 36.1617 40.625 39.0625V46.875Z" fill="black"/>
<line x1="11.8055" y1="45.1666" x2="39.5833" y2="45.1666" stroke="black" stroke-width="3"/>
</svg>
