<svg width="133" height="112" viewBox="0 0 133 112" fill="none" xmlns="http://www.w3.org/2000/svg">
<path d="M131.934 52.2659C133.692 84.1505 103.144 111.066 66.2226 111.066C29.3012 111.066 -3.44465 82.4942 0.291451 50.8166C5.56594 6.30246 40.5094 3.40386 66.2226 3.40386C81.8263 3.40386 127.978 -9.43278 131.934 52.2659Z" fill="#EF4D3C"/>
<path d="M22.6885 40.2997C35.4766 18.8447 57.3401 25.1024 63.1154 17.0568C63.1154 32.4776 73.4284 24.8789 78.5849 31.8071C85.1852 40.7466 87.6603 56.6143 95.4982 59.7432C87.8666 42.0876 100.242 42.758 82.9163 19.0682C92.198 25.3259 96.942 19.0682 109.524 24.6555C98.5921 5.88241 81.4725 11.2461 81.4725 11.2461C81.4725 11.2461 92.198 0.518686 101.273 6.1059C91.7855 -9.09132 64.353 10.1287 64.353 10.1287C64.353 10.1287 53.0087 -10.8792 28.67 11.2461C42.9019 4.98846 58.5777 11.2461 58.5777 11.2461C58.5777 11.2461 32.7952 4.31799 22.6885 40.2997Z" fill="#8CC63E"/>
</svg>
