<svg width="46" height="44" viewBox="0 0 46 44" fill="none" xmlns="http://www.w3.org/2000/svg">
<path d="M45.5 20.9453C45.0474 4.75288 33.116 2.71547 31.5 2.5C29.884 2.28453 26.5174 2.87276 25.1981 2.98826C25.1981 2.37727 25.1981 2.38556 25.2958 1.55468C25.2958 1.55468 25.2973 1.52927 25.2958 1.51802C25.2973 1.51202 25.33 1.006 25.33 1C25.33 0.73525 25.1165 0 24.5 0C23.885 0 23 0.23525 23 0.5C22.8313 1.35807 22.9895 2.21476 22.7003 3.04004C18 1.55468 2.07759 4.47104 0.330091 20.2315C-0.937409 31.6698 10.4038 43.5 22.9716 43.5C35.5393 43.5 46.1608 32.4398 45.5 20.9453ZM25.3775 5.52002C25.6843 5.49302 28.7 5.26531 29.027 5.23906C26.8718 5.52002 25.7368 6.85502 25.3775 7.02002C25.3513 6.90152 25.4015 6.25727 25.3775 6.13127V5.52002ZM22 5.52002C22 5.52002 21.5241 6.87077 21.1723 6.87077C20.9511 6.67059 19.6166 5.69046 19.3718 5.52002C19.7003 5.50877 21.8309 5.77734 22 5.52002ZM36.9016 34.52C33.1359 38.5083 28.8643 40.02 22.9715 40.02C16.9663 40.02 11 36.5 8.73303 33.5C6.10478 30.5 3.5 26.5 3.5 22.5C3.5 13.9849 10.3671 8.67752 14.9016 6.87077C19.2951 6.05477 20.2175 8.54252 20.2175 8.54252C20.2175 8.54252 10.8208 6.21002 7.13602 18.2835C11.7733 11.0543 19.7533 13.182 21.8525 10.5173C21.8525 15.669 25.5965 13.1693 27.4888 15.4898C29.9233 18.4733 30.8143 23.8193 33.6148 24.8723C30.8563 18.9503 35.3728 19.1813 29.027 11.2335C32.3698 13.3103 34.103 11.2088 38.6675 13.08C36.2269 7.66369 28.5148 8.54252 28.5148 8.54252C28.5148 8.54252 31.5 6.52002 34.6809 6.87077C37.3718 7.52002 41.7709 10.8023 42.4016 21.7568C42.6581 26.2305 40.2144 31.0115 36.9016 34.52Z" fill="black"/>
</svg>
